<?xml version="1.0" encoding="UTF-8"?>

<svg version="1.2" baseProfile="tiny" width="338.67mm" height="190.5mm" viewBox="0 0 33867 19050" preserveAspectRatio="xMidYMid" fill-rule="evenodd" stroke-width="28.222" stroke-linejoin="round" xmlns="http://www.w3.org/2000/svg" xmlns:xlink="http://www.w3.org/1999/xlink" xml:space="preserve">
 <g visibility="visible" id="MasterSlide_1_Default">
  <path fill="rgb(255,255,255)" stroke="none" d="M 16933,19049 L 0,19049 0,0 33866,0 33866,19049 16933,19049 Z"/>
  <rect fill="none" stroke="none" x="0" y="0" width="33867" height="19050"/>
 </g>
 <g visibility="visible" id="Slide_1_page1">
  <g id="DrawingGroup_1_Group_37">
   <g>
    <path fill="none" stroke="rgb(165,165,165)" id="Drawing_1_Freeform__Shape_4_0" stroke-width="53" d="M 20357,7542 L 20357,16014 21033,16014"/>
    <rect fill="none" stroke="none" x="20358" y="7543" width="676" height="8472"/>
   </g>
   <g>
    <path fill="none" stroke="rgb(165,165,165)" id="Drawing_2_Freeform__Shape_5_0" stroke-width="53" d="M 20357,7542 L 20357,12815 21033,12815"/>
    <rect fill="none" stroke="none" x="20358" y="7543" width="676" height="5272"/>
   </g>
   <g>
    <path fill="none" stroke="rgb(165,165,165)" id="Drawing_3_Freeform__Shape_6_0" stroke-width="53" d="M 20357,7543 L 20357,9616 21033,9616"/>
    <rect fill="none" stroke="none" x="20358" y="7543" width="676" height="2073"/>
   </g>
   <g>
    <path fill="none" stroke="rgb(165,165,165)" id="Drawing_4_Freeform__Shape_7_0" stroke-width="53" d="M 13981,4342 L 13981,4815 22160,4815 22160,5289"/>
    <rect fill="none" stroke="none" x="13981" y="4343" width="8179" height="946"/>
   </g>
   <g>
    <path fill="none" stroke="rgb(165,165,165)" id="Drawing_5_Freeform__Shape_8_0" stroke-width="53" d="M 14904,7542 L 14904,16014 15580,16014"/>
    <rect fill="none" stroke="none" x="14905" y="7543" width="676" height="8472"/>
   </g>
   <g>
    <path fill="none" stroke="rgb(165,165,165)" id="Drawing_6_Freeform__Shape_9_0" stroke-width="53" d="M 14904,7542 L 14904,12815 15580,12815"/>
    <rect fill="none" stroke="none" x="14905" y="7543" width="676" height="5272"/>
   </g>
   <g>
    <path fill="none" stroke="rgb(165,165,165)" id="Drawing_7_Freeform__Shape_10_0" stroke-width="53" d="M 14904,7543 L 14904,9616 15580,9616"/>
    <rect fill="none" stroke="none" x="14905" y="7543" width="676" height="2073"/>
   </g>
   <g>
    <path fill="none" stroke="rgb(165,165,165)" id="Drawing_8_Freeform__Shape_11_0" stroke-width="53" d="M 13980,4342 L 13980,4815 16707,4815 16707,5289"/>
    <rect fill="none" stroke="none" x="13981" y="4343" width="2726" height="946"/>
   </g>
   <g>
    <path fill="none" stroke="rgb(165,165,165)" id="Drawing_9_Freeform__Shape_12_0" stroke-width="53" d="M 9452,7542 L 9452,16014 10128,16014"/>
    <rect fill="none" stroke="none" x="9453" y="7543" width="676" height="8472"/>
   </g>
   <g>
    <path fill="none" stroke="rgb(165,165,165)" id="Drawing_10_Freeform__Shape_13_0" stroke-width="53" d="M 9452,7542 L 9452,12815 10128,12815"/>
    <rect fill="none" stroke="none" x="9453" y="7543" width="676" height="5272"/>
   </g>
   <g>
    <path fill="none" stroke="rgb(165,165,165)" id="Drawing_11_Freeform__Shape_14_0" stroke-width="53" d="M 9452,7543 L 9452,9616 10128,9616"/>
    <rect fill="none" stroke="none" x="9453" y="7543" width="676" height="2073"/>
   </g>
   <g>
    <path fill="none" stroke="rgb(165,165,165)" id="Drawing_12_Freeform__Shape_15_0" stroke-width="53" d="M 13981,4342 L 13981,4815 11254,4815 11254,5289"/>
    <rect fill="none" stroke="none" x="11255" y="4343" width="2726" height="946"/>
   </g>
   <g>
    <path fill="none" stroke="rgb(165,165,165)" id="Drawing_13_Freeform__Shape_16_0" stroke-width="53" d="M 3999,7542 L 3999,16014 4675,16014"/>
    <rect fill="none" stroke="none" x="4000" y="7543" width="676" height="8472"/>
   </g>
   <g>
    <path fill="none" stroke="rgb(165,165,165)" id="Drawing_14_Freeform__Shape_17_0" stroke-width="53" d="M 3999,7542 L 3999,12815 4675,12815"/>
    <rect fill="none" stroke="none" x="4000" y="7543" width="676" height="5272"/>
   </g>
   <g>
    <path fill="none" stroke="rgb(165,165,165)" id="Drawing_15_Freeform__Shape_18_0" stroke-width="53" d="M 3999,7543 L 3999,9616 4675,9616"/>
    <rect fill="none" stroke="none" x="4000" y="7543" width="676" height="2073"/>
   </g>
   <g>
    <path fill="none" stroke="rgb(165,165,165)" id="Drawing_16_Freeform__Shape_19_0" stroke-width="53" d="M 13982,4342 L 13982,4815 5803,4815 5803,5289"/>
    <rect fill="none" stroke="none" x="5803" y="4343" width="8179" height="946"/>
   </g>
   <g id="Drawing_17_Freeform__Shape_20">
    <path fill="rgb(255,255,255)" stroke="none" d="M 11727,2090 L 16233,2090 16233,4343 11727,4343 11727,2090 11727,2090 Z"/>
    <path fill="none" stroke="rgb(165,165,165)" stroke-width="53" d="M 11727,2090 L 16233,2090 16233,4343 11727,4343 11727,2090 11727,2090 Z"/>
    <rect fill="none" stroke="none" x="11728" y="2090" width="4506" height="2253"/>
    <g fill="rgb(0,0,0)" stroke="none" font-family="Arial embedded" font-size="494" font-style="normal" font-weight="400">
     <text x="12284" y="3384">
      <tspan x="12284 12572 12847 13186 13452 13728 14003 14278 14545 14659 14989 15319">Компания ABC</tspan></text>
    </g>
   </g>
   <g id="Drawing_18_Freeform__Shape_21">
    <path fill="rgb(255,255,255)" stroke="none" d="M 3548,5290 L 8054,5290 8054,7543 3548,7543 3548,5290 3548,5290 Z"/>
    <path fill="none" stroke="rgb(165,165,165)" stroke-width="53" d="M 3548,5290 L 8054,5290 8054,7543 3548,7543 3548,5290 3548,5290 Z"/>
    <rect fill="none" stroke="none" x="3549" y="5290" width="4506" height="2253"/>
    <g fill="rgb(0,0,0)" stroke="none" font-family="Arial embedded" font-size="494" font-style="normal" font-weight="400">
     <text x="4186" y="6584">
      <tspan x="4186 4542 4817 5092 5367 5596 5854 6116 6404 6654 6883 7141">Производство</tspan></text>
    </g>
   </g>
   <g id="Drawing_19_Freeform__Shape_22">
    <path fill="rgb(255,255,255)" stroke="none" d="M 4675,8489 L 9181,8489 9181,10742 4675,10742 4675,8489 4675,8489 Z"/>
    <path fill="none" stroke="rgb(165,165,165)" stroke-width="53" d="M 4675,8489 L 9181,8489 9181,10742 4675,10742 4675,8489 4675,8489 Z"/>
    <rect fill="none" stroke="none" x="4676" y="8489" width="4506" height="2253"/>
    <g fill="rgb(0,0,0)" stroke="none" font-family="Arial embedded" font-size="494" font-style="normal" font-weight="400">
     <text x="5607" y="9517">
      <tspan x="5607 5920 6191 6420 6695 6970 7254 7516 7745 7973 8249">Разработка </tspan></text>
     <text fill="rgb(0,0,0)" stroke="none" x="5770" y="10049">
      <tspan x="5770 6037 6312 6574 6862 7104 7324 7548 7823">продуктов</tspan></text>
    </g>
   </g>
   <g id="Drawing_20_Freeform__Shape_23">
    <path fill="rgb(255,255,255)" stroke="none" d="M 4675,11689 L 9181,11689 9181,13942 4675,13942 4675,11689 4675,11689 Z"/>
    <path fill="none" stroke="rgb(165,165,165)" stroke-width="53" d="M 4675,11689 L 9181,11689 9181,13942 4675,13942 4675,11689 4675,11689 Z"/>
    <rect fill="none" stroke="none" x="4676" y="11689" width="4506" height="2253"/>
    <g fill="rgb(0,0,0)" stroke="none" font-family="Arial embedded" font-size="494" font-style="normal" font-weight="400">
     <text x="5239" y="12983">
      <tspan x="5239 5573 5849 6098 6327 6602 6877 7161 7419 7792 8075 8351">Дистрибьюция</tspan></text>
    </g>
   </g>
   <g id="Drawing_21_Freeform__Shape_24">
    <path fill="rgb(255,255,255)" stroke="none" d="M 4675,14888 L 9181,14888 9181,17141 4675,17141 4675,14888 4675,14888 Z"/>
    <path fill="none" stroke="rgb(165,165,165)" stroke-width="53" d="M 4675,14888 L 9181,14888 9181,17141 4675,17141 4675,14888 4675,14888 Z"/>
    <rect fill="none" stroke="none" x="4676" y="14888" width="4506" height="2253"/>
    <g fill="rgb(0,0,0)" stroke="none" font-family="Arial embedded" font-size="494" font-style="normal" font-weight="400">
     <text x="5620" y="16182">
      <tspan x="5620 5976 6251 6526 6805 7136 7411 7686 7961">Снабжение</tspan></text>
    </g>
   </g>
   <g id="Drawing_22_Freeform__Shape_25">
    <path fill="rgb(255,255,255)" stroke="none" d="M 9001,5290 L 13507,5290 13507,7543 9001,7543 9001,5290 9001,5290 Z"/>
    <path fill="none" stroke="rgb(165,165,165)" stroke-width="53" d="M 9001,5290 L 13507,5290 13507,7543 9001,7543 9001,5290 9001,5290 Z"/>
    <rect fill="none" stroke="none" x="9002" y="5290" width="4506" height="2253"/>
    <g fill="rgb(0,0,0)" stroke="none" font-family="Arial embedded" font-size="494" font-style="normal" font-weight="400">
     <text x="10223" y="6584">
      <tspan x="10223 10579 10854 11116 11404 11679 12009">Продажи</tspan></text>
    </g>
   </g>
   <g id="Drawing_23_Freeform__Shape_26">
    <path fill="rgb(255,255,255)" stroke="none" d="M 10127,8489 L 14633,8489 14633,10742 10127,10742 10127,8489 10127,8489 Z"/>
    <path fill="none" stroke="rgb(165,165,165)" stroke-width="53" d="M 10127,8489 L 14633,8489 14633,10742 10127,10742 10127,8489 10127,8489 Z"/>
    <rect fill="none" stroke="none" x="10128" y="8489" width="4506" height="2253"/>
    <g fill="rgb(0,0,0)" stroke="none" font-family="Arial embedded" font-size="494" font-style="normal" font-weight="400">
     <text x="11006" y="9517">
      <tspan x="11006 11298 11565 11840 12115 12365 12653 12928 13203 13478 13753">Управление </tspan></text>
     <text fill="rgb(0,0,0)" stroke="none" x="11006" y="10049">
      <tspan x="11006 11273 11548 11810 12039 12314 12589 12864 13140 13478">партнерами</tspan></text>
    </g>
   </g>
   <g id="Drawing_24_Freeform__Shape_27">
    <path fill="rgb(255,255,255)" stroke="none" d="M 10127,11689 L 14633,11689 14633,13942 10127,13942 10127,11689 10127,11689 Z"/>
    <path fill="none" stroke="rgb(165,165,165)" stroke-width="53" d="M 10127,11689 L 14633,11689 14633,13942 10127,13942 10127,11689 10127,11689 Z"/>
    <rect fill="none" stroke="none" x="10128" y="11689" width="4506" height="2253"/>
    <g fill="rgb(0,0,0)" stroke="none" font-family="Arial embedded" font-size="494" font-style="normal" font-weight="400">
     <text x="10187" y="12983">
      <tspan x="10187 10543 10830 11076 11410 11681 11957 12096 12363 12625 12913 13201 13476 13751 14082 14298">Служба поддержки</tspan></text>
    </g>
   </g>
   <g id="Drawing_25_Freeform__Shape_28">
    <path fill="rgb(255,255,255)" stroke="none" d="M 10127,14888 L 14633,14888 14633,17141 10127,17141 10127,14888 10127,14888 Z"/>
    <path fill="none" stroke="rgb(165,165,165)" stroke-width="53" d="M 10127,14888 L 14633,14888 14633,17141 10127,17141 10127,14888 10127,14888 Z"/>
    <rect fill="none" stroke="none" x="10128" y="14888" width="4506" height="2253"/>
    <g fill="rgb(0,0,0)" stroke="none" font-family="Arial embedded" font-size="494" font-style="normal" font-weight="400">
     <text x="11493" y="15916">
      <tspan x="11493 11849 12107 12374 12602 12877 13017 13267">Связи с </tspan></text>
     <text fill="rgb(0,0,0)" stroke="none" x="10288" y="16448">
      <tspan x="10288 10563 10847 11249 11524 11774 12003 12261 12536 12811 13086 13361 13611 13840 14098">общественностью</tspan></text>
    </g>
   </g>
   <g id="Drawing_26_Freeform__Shape_29">
    <path fill="rgb(255,255,255)" stroke="none" d="M 14453,5290 L 18959,5290 18959,7543 14453,7543 14453,5290 14453,5290 Z"/>
    <path fill="none" stroke="rgb(165,165,165)" stroke-width="53" d="M 14453,5290 L 18959,5290 18959,7543 14453,7543 14453,5290 14453,5290 Z"/>
    <rect fill="none" stroke="none" x="14454" y="5290" width="4506" height="2253"/>
    <g fill="rgb(0,0,0)" stroke="none" font-family="Arial embedded" font-size="494" font-style="normal" font-weight="400">
     <text x="15664" y="6584">
      <tspan x="15664 16041 16316 16591 16866 17141 17391">Финансы</tspan></text>
    </g>
   </g>
   <g id="Drawing_27_Freeform__Shape_30">
    <path fill="rgb(255,255,255)" stroke="none" d="M 15580,8489 L 20086,8489 20086,10742 15580,10742 15580,8489 15580,8489 Z"/>
    <path fill="none" stroke="rgb(165,165,165)" stroke-width="53" d="M 15580,8489 L 20086,8489 20086,10742 15580,10742 15580,8489 15580,8489 Z"/>
    <rect fill="none" stroke="none" x="15581" y="8489" width="4506" height="2253"/>
    <g fill="rgb(0,0,0)" stroke="none" font-family="Arial embedded" font-size="494" font-style="normal" font-weight="400">
     <text x="16144" y="9517">
      <tspan x="16144 16500 16787 17063 17338 17613 17888 18163 18422 18697 18972 19247 19522">Планирование </tspan></text>
     <text fill="rgb(0,0,0)" stroke="none" x="16901" y="10049">
      <tspan x="16901 17185 17460 17688 17964 18239 18489">бизнеса</tspan></text>
    </g>
   </g>
   <g id="Drawing_28_Freeform__Shape_31">
    <path fill="rgb(255,255,255)" stroke="none" d="M 15580,11689 L 20086,11689 20086,13942 15580,13942 15580,11689 15580,11689 Z"/>
    <path fill="none" stroke="rgb(165,165,165)" stroke-width="53" d="M 15580,11689 L 20086,11689 20086,13942 15580,13942 15580,11689 15580,11689 Z"/>
    <rect fill="none" stroke="none" x="15581" y="11689" width="4506" height="2253"/>
    <g fill="rgb(0,0,0)" stroke="none" font-family="Arial embedded" font-size="494" font-style="normal" font-weight="400">
     <text x="16459" y="12717">
      <tspan x="16459 16751 17018 17293 17568 17818 18106 18381 18656 18931 19206">Управление </tspan></text>
     <text fill="rgb(0,0,0)" stroke="none" x="16607" y="13249">
      <tspan x="16607 16836 17111 17377 17653 17877 18152 18444 18719">капиталом</tspan></text>
    </g>
   </g>
   <g id="Drawing_29_Freeform__Shape_32">
    <path fill="rgb(255,255,255)" stroke="none" d="M 15580,14888 L 20086,14888 20086,17141 15580,17141 15580,14888 15580,14888 Z"/>
    <path fill="none" stroke="rgb(165,165,165)" stroke-width="53" d="M 15580,14888 L 20086,14888 20086,17141 15580,17141 15580,14888 15580,14888 Z"/>
    <rect fill="none" stroke="none" x="15581" y="14888" width="4506" height="2253"/>
    <g fill="rgb(0,0,0)" stroke="none" font-family="Arial embedded" font-size="494" font-style="normal" font-weight="400">
     <text x="15725" y="15916">
      <tspan x="15725 16081 16356 16762 17037 17313 17651 17926 18210 18485 18760 19035 19311 19666 19941">Информационные </tspan></text>
     <text fill="rgb(0,0,0)" stroke="none" x="16550" y="16448">
      <tspan x="16550 16774 17037 17278 17553 17816 18108 18383 18565 18840">технологии</tspan></text>
    </g>
   </g>
   <g id="Drawing_30_Freeform__Shape_33">
    <path fill="rgb(255,255,255)" stroke="none" d="M 19906,5290 L 24412,5290 24412,7543 19906,7543 19906,5290 19906,5290 Z"/>
    <path fill="none" stroke="rgb(165,165,165)" stroke-width="53" d="M 19906,5290 L 24412,5290 24412,7543 19906,7543 19906,5290 19906,5290 Z"/>
    <rect fill="none" stroke="none" x="19907" y="5290" width="4506" height="2253"/>
    <g fill="rgb(0,0,0)" stroke="none" font-family="Arial embedded" font-size="494" font-style="normal" font-weight="400">
     <text x="20785" y="6318">
      <tspan x="20785 21077 21344 21619 21894 22144 22432 22707 22982 23257 23532">Управление </tspan></text>
     <text fill="rgb(0,0,0)" stroke="none" x="20758" y="6850">
      <tspan x="20758 21025 21300 21575 21829 22104 22379 22655 22947 23222">персоналом</tspan></text>
    </g>
   </g>
   <g id="Drawing_31_Freeform__Shape_34">
    <path fill="rgb(255,255,255)" stroke="none" d="M 21032,8489 L 25538,8489 25538,10742 21032,10742 21032,8489 21032,8489 Z"/>
    <path fill="none" stroke="rgb(165,165,165)" stroke-width="53" d="M 21032,8489 L 25538,8489 25538,10742 21032,10742 21032,8489 21032,8489 Z"/>
    <rect fill="none" stroke="none" x="21033" y="8489" width="4506" height="2253"/>
    <g fill="rgb(0,0,0)" stroke="none" font-family="Arial embedded" font-size="494" font-style="normal" font-weight="400">
     <text x="21098" y="9517">
      <tspan x="21098 21411 21686 21932 22190 22448 22677 22817 23045 23321 23596 23871 24154 24417 24646 24921 25196 25471">Расчет заработной </tspan></text>
     <text fill="rgb(0,0,0)" stroke="none" x="22584" y="10049">
      <tspan x="22584 22851 23139 23401 23630">платы</tspan></text>
    </g>
   </g>
   <g id="Drawing_32_Freeform__Shape_35">
    <path fill="rgb(255,255,255)" stroke="none" d="M 21032,11689 L 25538,11689 25538,13942 21032,13942 21032,11689 21032,11689 Z"/>
    <path fill="none" stroke="rgb(165,165,165)" stroke-width="53" d="M 21032,11689 L 25538,11689 25538,13942 21032,13942 21032,11689 21032,11689 Z"/>
    <rect fill="none" stroke="none" x="21033" y="11689" width="4506" height="2253"/>
    <g fill="rgb(0,0,0)" stroke="none" font-family="Arial embedded" font-size="494" font-style="normal" font-weight="400">
     <text x="21115" y="12983">
      <tspan x="21115 21471 21733 22021 22305 22580 22855 22995 23261 23536 23812 24066 24341 24616 24891 25179">Подбор персонала</tspan></text>
    </g>
   </g>
   <g id="Drawing_33_Freeform__Shape_36">
    <path fill="rgb(255,255,255)" stroke="none" d="M 21032,14888 L 25538,14888 25538,17141 21032,17141 21032,14888 21032,14888 Z"/>
    <path fill="none" stroke="rgb(165,165,165)" stroke-width="53" d="M 21032,14888 L 25538,14888 25538,17141 21032,17141 21032,14888 21032,14888 Z"/>
    <rect fill="none" stroke="none" x="21033" y="14888" width="4506" height="2253"/>
    <g fill="rgb(0,0,0)" stroke="none" font-family="Arial embedded" font-size="494" font-style="normal" font-weight="400">
     <text x="21911" y="15916">
      <tspan x="21911 22203 22470 22745 23020 23270 23558 23833 24108 24383 24658">Управление </tspan></text>
     <text fill="rgb(0,0,0)" stroke="none" x="22059" y="16448">
      <tspan x="22059 22283 22559 22846 23122 23397 23621 23896 24235">талантами</tspan></text>
    </g>
   </g>
  </g>
 </g>
</svg>